<svg id="visual" viewBox="0 0 960 540" width="960" height="540" xmlns="http://www.w3.org/2000/svg" xmlns:xlink="http://www.w3.org/1999/xlink" version="1.1"><rect x="0" y="0" width="960" height="540" fill="#1e1e1e"></rect><path d="M42 0L42.8 12.8C43.7 25.7 45.3 51.3 45.2 77C45 102.7 43 128.3 44.5 154C46 179.7 51 205.3 52.3 231.2C53.7 257 51.3 283 47.8 308.8C44.3 334.7 39.7 360.3 39.8 386C40 411.7 45 437.3 47.8 463C50.7 488.7 51.3 514.3 51.7 527.2L52 540L0 540L0 527.2C0 514.3 0 488.7 0 463C0 437.3 0 411.7 0 386C0 360.3 0 334.7 0 308.8C0 283 0 257 0 231.2C0 205.3 0 179.7 0 154C0 128.3 0 102.7 0 77C0 51.3 0 25.7 0 12.8L0 0Z" fill="#919de5" stroke-linecap="round" stroke-linejoin="miter"></path></svg>